<?xml version="1.0" encoding="utf-8"?>
<!-- Generator: Adobe Illustrator 23.0.3, SVG Export Plug-In . SVG Version: 6.00 Build 0)  -->
<svg version="1.1" id="Layer_1" xmlns="http://www.w3.org/2000/svg" xmlns:xlink="http://www.w3.org/1999/xlink" x="0px" y="0px"
	 viewBox="0 0 875 313" style="enable-background:new 0 0 875 313;" xml:space="preserve">
<style type="text/css">
	.st0{fill-rule:evenodd;clip-rule:evenodd;fill:#FFFFFF;}
	.st1{fill-rule:evenodd;clip-rule:evenodd;}
	.st2{fill:#FFFFFF;}
</style>
<g>
	<g id="XMLID_15_">
		<g id="XMLID_16_">
			<path id="XMLID_26_" class="st0" d="M513.28,119.68c-12.15,0-21.68,2.6-31.23,7.81c0-27.75,0-52.91,0.87-61.58L424.8,76.31v5.2
				l6.07,0.87c7.81,1.73,10.41,6.07,12.14,16.48c1.74,20.81,0.87,131.84,0,150.06c15.61,3.47,32.09,6.07,48.58,6.07
				c45.97,0,73.73-28.63,73.73-73.73C565.32,145.7,542.77,119.68,513.28,119.68L513.28,119.68z M493.33,245.45
				c-3.47,0-7.81,0-10.42-0.86c-0.87-12.14-1.73-63.32-0.87-108.43c5.2-1.74,8.67-2.6,13.01-2.6c19.08,0,29.49,22.55,29.49,50.3
				C524.55,218.57,511.54,245.45,493.33,245.45L493.33,245.45z"/>
			<path id="XMLID_25_" class="st0" d="M206.21,69.38H53.55v7.81l8.68,0.87c11.28,1.73,15.61,8.67,17.34,25.15
				c2.61,31.22,1.74,87.61,0,114.49c-1.73,16.48-6.07,24.29-17.34,25.15l-8.68,1.74v6.94h98.01v-6.94l-10.41-1.74
				c-11.28-0.86-15.61-8.67-17.35-25.15c-0.87-11.28-1.74-29.49-1.74-52.04l20.82,0.87c13.01,0,19.08,10.41,21.68,25.15h7.81v-61.58
				h-7.81c-2.61,14.75-8.67,25.15-21.68,25.15l-20.82,0.87c0-29.49,0.87-57.25,1.74-73.72h30.35c23.43,0,35.57,14.74,44.24,40.77
				l8.67-2.6L206.21,69.38L206.21,69.38z"/>
			<path id="XMLID_22_" class="st0" d="M255.66,117.95c43.37,0,65.06,29.49,65.06,68.52c0,37.3-24.29,68.53-67.66,68.53
				c-43.37,0-65.05-29.5-65.05-68.53C188,149.18,212.29,117.95,255.66,117.95L255.66,117.95z M253.05,126.63
				c-19.08,0-24.28,26.02-24.28,59.84c0,32.96,8.67,59.85,26.03,59.85c19.94,0,25.15-26.02,25.15-59.85
				C279.95,153.51,271.27,126.63,253.05,126.63L253.05,126.63z"/>
			<path id="XMLID_19_" class="st0" d="M576.6,187.34c0-35.56,22.55-69.39,66.79-69.39c36.43,0,53.78,26.89,53.78,62.46h-80.67
				c-0.87,32.09,14.75,55.51,45.98,55.51c13.88,0,20.82-3.46,29.49-9.54l3.47,4.33c-8.68,12.14-27.75,24.29-52.04,24.29
				C604.35,255,576.6,227.25,576.6,187.34L576.6,187.34z M616.49,170.87l40.77-0.87c0-17.35-2.6-43.37-17.35-43.37
				C625.17,126.63,617.36,150.91,616.49,170.87L616.49,170.87z"/>
			<path id="XMLID_18_" class="st0" d="M800.38,124.89c-10.41-4.34-24.29-6.95-39.9-6.95c-32.09,0-52.05,19.08-52.05,41.64
				c0,22.55,14.74,32.09,35.57,39.04c21.68,7.8,27.76,13.87,27.76,24.28c0,10.41-7.81,19.95-21.68,19.95
				c-16.48,0-28.63-9.54-38.17-35.56l-6.07,1.74l0.87,38.16c10.41,4.33,29.49,7.81,45.98,7.81c33.82,0,55.51-17.35,55.51-44.24
				c0-18.22-9.54-28.63-32.1-37.3c-24.29-9.54-32.96-15.6-32.96-26.88c0-11.28,7.81-19.09,18.22-19.09
				c15.61,0,26.02,9.54,33.83,32.96l6.07-1.73L800.38,124.89L800.38,124.89z"/>
			<path id="XMLID_17_" class="st0" d="M433.48,121.42c-14.74-8.67-40.77-4.34-54.65,26.89l0.87-30.36l-58.12,11.28v5.2l6.07,0.87
				c7.81,0.87,11.28,5.2,12.14,16.49c1.74,20.82,0.87,57.25,0,75.47c-0.87,10.4-4.33,15.6-12.14,16.47l-6.07,0.87v6.94h80.67v-6.94
				l-10.41-0.87c-8.67-0.87-11.27-6.07-12.14-16.47c-1.73-16.49-1.73-49.44-0.87-70.26c4.34-6.07,23.42-11.28,40.76,0L433.48,121.42
				L433.48,121.42z"/>
		</g>
	</g>
</g>
<g>
	<path class="st2" d="M552.38,65.43h19.4v4.41h-13.73v6.93h12.18v4.37h-12.18v6.97h13.73v4.37h-19.4V65.43z"/>
	<path class="st2" d="M576.61,65.43h4.91l12.81,18.02V65.43h5.67v27.05h-4.91l-12.81-18.02v18.02h-5.67V65.43z"/>
	<path class="st2" d="M621.68,65.43h19.4v4.41h-13.73v6.93h12.18v4.37h-12.18v6.97h13.73v4.37h-19.4V65.43z"/>
	<path class="st2" d="M645.58,91.43v-5c1.26,0.5,2.6,0.91,4.03,1.22c1.43,0.31,2.81,0.46,4.16,0.46c2.1,0,3.58-0.2,4.43-0.59
		c0.85-0.39,1.28-1.2,1.28-2.44c0-0.81-0.2-1.46-0.59-1.93c-0.39-0.48-1.04-0.89-1.93-1.24c-0.9-0.35-2.3-0.79-4.2-1.32
		c-2.83-0.78-4.82-1.76-5.96-2.94c-1.15-1.18-1.72-2.8-1.72-4.87c0-2.49,0.91-4.41,2.73-5.75c1.82-1.34,4.47-2.02,7.94-2.02
		c1.57,0,3.06,0.1,4.47,0.31s2.57,0.48,3.47,0.82v5c-2.3-0.87-4.69-1.3-7.18-1.3c-1.9,0-3.32,0.21-4.26,0.63
		c-0.94,0.42-1.41,1.19-1.41,2.31c0,0.7,0.17,1.26,0.53,1.68c0.35,0.42,0.94,0.79,1.76,1.11s2.11,0.71,3.84,1.15
		c3.13,0.84,5.3,1.93,6.51,3.25c1.2,1.33,1.81,3.03,1.81,5.1c0,2.44-0.92,4.35-2.77,5.73c-1.85,1.39-4.58,2.08-8.19,2.08
		S647.79,92.41,645.58,91.43z"/>
	<path class="st2" d="M670.1,65.43h12.68c3.05,0,5.36,0.85,6.93,2.56c1.57,1.71,2.35,3.96,2.35,6.76c0,1.82-0.38,3.43-1.15,4.83
		c-0.77,1.4-1.87,2.49-3.3,3.25c-1.43,0.77-3.09,1.16-5,1.16h-6.85v8.48h-5.67V65.43z M681.44,79.5c1.6,0,2.81-0.42,3.65-1.26
		c0.84-0.84,1.26-2,1.26-3.49c0-1.57-0.39-2.76-1.18-3.59c-0.78-0.83-1.96-1.24-3.53-1.24h-5.88v9.58H681.44z"/>
	<path class="st2" d="M701.39,65.43h6.22l10.29,27.05h-5.88l-2.56-6.51h-9.96l-2.52,6.51h-5.92L701.39,65.43z M708.62,81.6
		l-4.16-10.88l-4.12,10.88H708.62z"/>
	<path class="st2" d="M722.73,65.43h4.91l12.81,18.02V65.43h5.67v27.05h-4.91L728.4,74.46v18.02h-5.67V65.43z M736.72,62.87
		c-0.53-0.14-1.22-0.36-2.06-0.67c-1.34-0.53-2.37-0.8-3.07-0.8c-1.57,0-2.83,0.52-3.78,1.55v-4.03c0.39-0.39,0.92-0.71,1.57-0.94
		c0.66-0.24,1.35-0.36,2.08-0.36c0.59,0,1.16,0.08,1.7,0.23c0.55,0.15,1.16,0.37,1.83,0.65c0.78,0.28,1.39,0.48,1.83,0.61
		c0.43,0.13,0.9,0.19,1.41,0.19c1.57,0,2.73-0.53,3.49-1.6v4.03c-0.28,0.39-0.72,0.71-1.32,0.97s-1.28,0.38-2.04,0.38
		C737.79,63.08,737.25,63.01,736.72,62.87z"/>
	<path class="st2" d="M750.95,79.08c0-4.87,1.08-8.44,3.25-10.69c2.17-2.25,5.47-3.38,9.89-3.38s7.72,1.13,9.89,3.38
		c2.17,2.25,3.26,5.82,3.26,10.69c0,9.21-4.38,13.82-13.15,13.82S750.95,88.3,750.95,79.08z M769.69,85.87
		c1.2-1.47,1.81-3.73,1.81-6.78c0-3.33-0.59-5.7-1.76-7.12c-1.18-1.41-3.05-2.12-5.63-2.12s-4.45,0.71-5.63,2.12
		c-1.18,1.41-1.76,3.79-1.76,7.12c0,3.05,0.6,5.31,1.81,6.78c1.2,1.47,3.07,2.21,5.59,2.21C766.62,88.07,768.48,87.34,769.69,85.87z
		"/>
	<path class="st2" d="M782.08,65.43h5.67v22.68h13.31v4.37h-18.98V65.43z"/>
</g>
</svg>
